<?xml version="1.0" standalone="no"?><!DOCTYPE svg PUBLIC "-//W3C//DTD SVG 1.1//EN" "http://www.w3.org/Graphics/SVG/1.1/DTD/svg11.dtd"><svg t="1587738063239" class="icon" viewBox="0 0 1024 1024" version="1.1" xmlns="http://www.w3.org/2000/svg" p-id="1194" xmlns:xlink="http://www.w3.org/1999/xlink" width="200" height="200"><defs><style type="text/css"></style></defs><path d="M1020.73858164 113.13952546L974.48961966 87.95298885c-0.1472897 0-0.29457937-0.1472897-0.29457937-0.14728968-0.58915875-0.29457937-1.17831749-0.44186907-1.76747626-0.58915876h-0.29457937c-1.17831749-0.29457937-2.35663501-0.29457937-3.53495251-0.14728969l-960.3287644 134.91735401c-1.03102783 0.1472897-1.91476594 0.44186907-2.94579376 0.88373813-0.1472897 0-0.29457937 0-0.29457938 0.14728969-0.1472897 0.1472897-0.44186907 0.29457937-0.58915874 0.29457938-0.29457937 0.1472897-0.58915875 0.29457937-0.73644844 0.44186906-0.1472897 0.1472897-0.29457937 0.1472897-0.44186907 0.29457937-0.29457937 0.29457937-0.58915875 0.44186907-1.03102781 0.73644844l-0.29457938 0.29457938h-0.14728968c-0.44186907 0.29457937-0.73644845 0.73644845-1.1783175 1.17831751l-0.29457937 0.29457938c-0.1472897 0.1472897-0.1472897 0.29457937-0.29457937 0.44186906-0.1472897 0.1472897-0.29457937 0.44186907-0.44186908 0.58915874-0.1472897 0.29457937-0.29457937 0.58915875-0.58915875 0.88373814-0.1472897 0.1472897-0.1472897 0.29457937-0.29457937 0.44186904l-0.14728969 0.14728971c-0.29457937 0.58915875-0.58915875 1.17831749-0.73644843 1.76747625 0 0 0 0.1472897-0.1472897 0.14728969-0.58915875 1.47289687-0.88373813 3.09308345-0.88373812 4.8605597l-1.32560719 689.75760792c0 2.20934532 0.58915875 4.12411126 1.47289687 5.74429781s2.20934532 2.94579374 3.82953187 3.82953189l46.24896198 25.18653661c-3.09308345-1.76747625-5.30242877-5.30242877-5.30242877-9.5738297l1.32560719-689.75760793c0-1.62018657 0.29457937-3.24037312 0.88373813-4.8605597v-0.14728969c0.29457937-0.73644845 0.58915875-1.3256072 0.88373814-1.91476594 0.1472897-0.1472897 0.1472897-0.29457937 0.29457937-0.44186904 0.29457937-0.44186907 0.58915875-1.03102783 1.03102781-1.47289689 0.1472897-0.1472897 0.1472897-0.29457937 0.29457939-0.44186907 0.44186907-0.58915875 0.88373813-1.03102783 1.47289686-1.47289687l0.29457938-0.29457938c0.44186907-0.29457937 0.88373813-0.73644845 1.3256072-1.03102782 0.29457937-0.1472897 0.58915875-0.29457937 0.73644843-0.44186907 0.29457937-0.1472897 0.58915875-0.29457937 1.03102782-0.44186905 0.88373813-0.44186907 1.91476594-0.73644845 2.94579375-0.88373814l960.3287644-134.917354c1.17831749-0.1472897 2.50392469 0 3.53495252 0.14728967 1.03102783 0 1.91476594 0.29457937 2.65121438 0.73644845z" fill="#7BB7FF" p-id="1195"></path><path d="M1014.69970444 112.10849763c6.1861669-0.88373813 11.19401627 3.82953187 11.19401627 10.60485754l-1.1783175 689.75760792c0 6.77532564-5.0078494 12.96149253-11.19401628 13.84523067l-960.3287644 134.91735399c-6.1861669 0.88373813-11.19401627-3.82953187-11.19401627-10.60485751l1.32560718-689.75760793c0-6.77532564 5.0078494-12.96149253 11.19401627-13.84523064l960.18147473-134.91735404z" fill="#D5E1FF" p-id="1196"></path><path d="M556.92335477 821.30834435c1.62018657-0.29457937 2.94579374 1.03102783 2.94579376 2.79850408v12.22504409c0 1.76747625-1.3256072 3.38766283-2.94579376 3.53495249l-459.54382592 64.66017296c-1.62018657 0.29457937-2.94579374-1.03102783-2.94579374-2.79850407v-12.22504409c0-1.62018657 1.3256072-3.38766283 2.94579374-3.5349525l459.54382592-64.66017296zM808.93601058 786.10610898c1.62018657-0.29457937 2.94579374 1.03102783 2.94579376 2.79850407v12.22504409c0 1.62018657-1.3256072 3.38766283-2.94579376 3.5349525l-28.27962004 3.97682157c-1.62018657 0.29457937-2.94579374-1.03102783-2.94579377-2.79850407v-12.22504408c0-1.76747625 1.3256072-3.38766283 2.94579377-3.5349525l28.27962004-3.97682158zM892.89113262 774.32293395c1.62018657-0.29457937 2.94579374 1.03102783 2.94579377 2.79850408v12.22504407c0 1.76747625-1.3256072 3.38766283-2.94579377 3.53495251l-28.27962005 3.97682158c-1.62018657 0.29457937-2.94579374-1.03102783-2.94579374-2.79850406v-12.2250441c0-1.76747625 1.3256072-3.38766283 2.94579374-3.53495251l28.27962005-3.97682157zM976.84625467 762.09788987c1.62018657-0.29457937 2.94579374 1.03102783 2.94579376 2.79850407v12.22504409c0 1.76747625-1.3256072 3.38766283-2.94579376 3.53495251l-28.27962006 3.97682157c-1.62018657 0.29457937-2.94579374-1.03102783-2.94579375-2.79850408v-12.22504408c0-1.62018657 1.3256072-3.38766283 2.94579375-3.53495252l28.27962006-3.97682156z" fill="#D5E1FF" p-id="1197"></path><path d="M972.28027434 149.52007835c5.74429781-0.73644845 10.16298847 3.5349525 10.16298847 9.72111939v542.46792015c0 6.1861669-4.56598032 11.78317502-10.31027815 12.51962344L96.20121136 837.51021003c-5.74429781 0.73644845-10.16298847-3.5349525-10.16298846-9.72111941l0.44186907-542.61520982c0-6.1861669 4.56598032-11.78317502 10.31027815-12.51962347l875.48990422-123.13417898z" fill="#CCDDFF" p-id="1198"></path><path d="M86.0382229 826.61077313c0.1472897 0 0 7.36448439 5.00784939 10.31027814 0.44186907 0.29457937 1.62018657 0.58915875 1.62018658 0.58915876 0.88373813 0.1472897 1.91476594 0.29457937 2.79850406 0.14728967l877.69924954-123.13417899c0.88373813-0.1472897 1.62018657-0.44186907 2.35663502-0.73644844 0.1472897 0 0.1472897 0 0.29457937-0.14728968s0.29457937-0.1472897 0.44186904-0.29457938c0.1472897-0.1472897 0.44186907-0.29457937 0.58915877-0.44186906 0.1472897 0 0.1472897-0.1472897 0.29457937-0.14728969 0.29457937-0.1472897 0.58915875-0.44186907 0.73644845-0.58915875 0.1472897 0 0.1472897-0.1472897 0.29457938-0.14728969l0.88373811-0.88373814s0.1472897-0.1472897 0.14728969-0.29457936l0.29457939-0.29457937 0.44186905-0.44186907c0.1472897-0.1472897 0.29457937-0.44186907 0.44186907-0.73644845 0-0.1472897 0.1472897-0.29457937 0.29457938-0.29457936 0 0 0-0.1472897 0.14728967-0.14728969 0.29457937-0.44186907 0.44186907-0.88373813 0.58915877-1.32560719v-0.14728969c0.44186907-1.17831749 0.73644845-2.50392469 0.73644843-3.82953188l1.03102782-545.26642421c0-4.56598032-3.97682157-8.24822251-8.5428019-7.80635344l-29.31064788 3.24037313c0.1472897 2.06205563 0.58915875 6.33345658 0.58915876 9.86840906l-0.88373813 519.34343916c0 1.3256072-0.29457937 2.65121438-0.73644843 3.82953188v0.1472897c-0.1472897 0.58915875-0.44186907 1.03102783-0.73644844 1.62018656 0 0.1472897-0.1472897 0.29457937-0.29457938 0.29457938-0.29457937 0.44186907-0.44186907 0.73644845-0.73644842 1.17831749-0.1472897 0.1472897-0.1472897 0.29457937-0.29457938 0.29457938-0.29457937 0.44186907-0.73644845 0.88373813-1.17831752 1.17831751-0.1472897 0-0.1472897 0.1472897-0.29457938 0.14728969-0.29457937 0.29457937-0.73644845 0.58915875-1.0310278 0.73644843-0.1472897 0.1472897-0.44186907 0.29457937-0.58915876 0.44186907-0.29457937 0.1472897-0.58915875 0.29457937-0.73644844 0.44186906-0.73644845 0.29457937-1.47289687 0.58915875-2.356635 0.73644844l-838.6674823 117.68446055c-1.03102783 0.1472897-10.45756784 1.76747625-11.34130595 1.62018656v13.25607191z" fill="#7BB7FF" p-id="1199"></path><path d="M708.18986414 296.51518675s-0.1472897 0-0.14728969-0.14728968c-0.29457937-0.1472897-0.73644845-0.29457937-1.1783175-0.44186907h-0.29457936c-0.73644845-0.1472897-1.62018657-0.29457937-2.50392472-0.14728967-0.73644845 0.1472897-1.47289687 0.29457937-2.20934532 0.58915874h-0.14728966c-0.44186907 0.1472897-0.73644845 0.44186907-1.17831753 0.73644843h-0.14728967s-0.1472897 0-0.1472897 0.1472897c-0.1472897 0.1472897-0.44186907 0.29457937-0.58915874 0.44186907l-0.58915875 0.58915876-0.14728969 0.14728966s0 0.1472897-0.1472897 0.14728971c-0.1472897 0.1472897-0.1472897 0.29457937-0.29457937 0.29457937-0.1472897 0.29457937-0.29457937 0.44186907-0.44186906 0.73644844-0.1472897 0.1472897-0.1472897 0.44186907-0.29457937 0.58915873l-135.80109215 255.10573926c-0.29457937 0.58915875-0.58915875 1.17831749-1.03102782 1.76747626 0 0 0 0.1472897-0.14728967 0.14728969l-1.32560719 1.3256072-0.1472897 0.14728967c-0.44186907 0.29457937-1.03102783 0.58915875-1.47289687 0.88373813-0.73644845 0.29457937-1.47289687 0.58915875-2.20934534 0.58915875-0.88373813 0.1472897-1.62018657 0-2.50392467-0.14728968-0.58915875-0.1472897-1.03102783-0.29457937-1.62018656-0.58915874l20.32597691 11.04672658s0.1472897 0 0.14728967 0.14728967c0.29457937 0.1472897 0.73644845 0.29457937 1.17831751 0.44186907h0.29457937c0.73644845 0.1472897 1.62018657 0.29457937 2.50392469 0.1472897 0.73644845-0.1472897 1.47289687-0.29457937 2.20934532-0.58915877h0.14728969c0.44186907-0.1472897 0.88373813-0.44186907 1.1783175-0.73644842l0.1472897-0.14728969 0.14728969-0.14728969c0.1472897-0.1472897 0.44186907-0.29457937 0.58915876-0.44186906 0.29457937-0.1472897 0.44186907-0.44186907 0.58915874-0.58915875l0.14728968-0.14728969s0-0.1472897 0.14728969-0.1472897c0.1472897-0.1472897 0.1472897-0.29457937 0.29457938-0.29457939 0.1472897-0.29457937 0.29457937-0.44186907 0.44186906-0.73644842 0.1472897-0.1472897 0.29457937-0.44186907 0.29457937-0.73644844l135.80109215-254.81115988c0.29457937-0.58915875 0.58915875-1.17831749 1.0310278-1.76747625 0 0 0-0.1472897 0.14728971-0.14728968l1.32560717-1.3256072s0.1472897 0 0.14728971-0.14728969c0.44186907-0.29457937 1.03102783-0.58915875 1.47289687-0.88373811 0.73644845-0.29457937 1.47289687-0.58915875 2.20934531-0.58915877 0.88373813-0.1472897 1.76747625 0 2.50392471 0.14728969 0.58915875 0.1472897 1.17831749 0.29457937 1.62018655 0.58915875l-20.32597691-11.04672659zM480.03813774 488.72822933c-0.29457937-0.1472897-0.73644845-0.29457937-1.17831749-0.44186906h-0.29457938c-0.73644845-0.1472897-1.62018657-0.29457937-2.5039247-0.14728969-0.73644845 0.1472897-1.62018657 0.29457937-2.356635 0.73644844l-0.88373813 0.44186905s-0.1472897 0-0.14728967 0.1472897c0 0-0.1472897 0-0.14728971 0.14728969-0.29457937 0.1472897-0.58915875 0.44186907-0.88373811 0.58915875-0.29457937 0.1472897-0.44186907 0.44186907-0.58915876 0.58915875-0.1472897 0.1472897-0.44186907 0.44186907-0.58915874 0.73644845-0.1472897 0.1472897-0.29457937 0.29457937-0.29457938 0.58915874l-151.70837843 244.20630235-0.14728969 0.14728969c-0.1472897 0.29457937-0.29457937 0.58915875-0.44186905 1.03102783-0.1472897 0.29457937-0.1472897 0.44186907-0.14728971 0.73644843-0.1472897 0.29457937-0.1472897 0.58915875-0.14728967 0.88373812v1.32560719c0 0.29457937 0 0.58915875 0.14728967 0.73644844 0.1472897 0.44186907 0.29457937 0.88373813 0.58915876 1.17831752 0.1472897 0.1472897 0.1472897 0.44186907 0.29457939 0.58915873 0.44186907 0.58915875 0.88373813 1.03102783 1.62018655 1.32560719l20.32597691 11.04672659c-0.58915875-0.29457937-1.17831749-0.73644845-1.62018655-1.32560718-0.1472897-0.1472897-0.1472897-0.44186907-0.29457938-0.58915876-0.29457937-0.44186907-0.44186907-0.73644845-0.58915874-1.1783175-0.1472897-0.29457937-0.1472897-0.58915875-0.1472897-0.73644844 0-0.44186907-0.1472897-0.88373813 0-1.32560719 0-0.29457937 0.1472897-0.58915875 0.1472897-0.88373813 0.1472897-0.58915875 0.29457937-1.3256072 0.73644842-1.91476593l151.70837844-244.20630237c0.58915875-1.17831749 1.47289687-2.06205563 2.50392469-2.65121438 0 0 0.1472897 0 0.14728969-0.14728969 1.03102783-0.58915875 2.06205563-1.03102783 3.24037311-1.17831751 0.88373813-0.1472897 1.62018657 0 2.50392471 0.1472897 0.58915875 0.1472897 1.17831749 0.29457937 1.62018656 0.58915875l-20.32597692-11.04672658c0-0.1472897 0-0.1472897-0.14728969-0.14728969z" fill="#203040" p-id="1200"></path><path d="M723.65528135 305.49985771c2.65121438-0.29457937 5.15513907 0.58915875 6.33345657 2.94579376l209.15135667 354.23169913c2.65121438 3.82953187-0.73644845 9.5738297-5.8915875 10.31027816l-79.68372111 11.19401626-91.31960642 12.81420284-70.55176045 9.86840909-198.69378883 27.98504068-150.08819187 21.06242536c-5.30242877 0.73644845-8.54280189-3.97682157-5.89158751-8.6900916l152.29753717-244.94275078c1.3256072-2.20934532 3.68224221-3.68224221 5.89158751-3.97682157 2.35663501-0.29457937 4.56598032 0.44186907 5.89158753 2.356635l67.75325638 67.90054608c1.3256072 1.91476594 3.68224221 2.65121438 5.89158751 2.35663499 2.65121438-0.29457937 5.15513907-2.06205563 6.33345657-4.86055969L717.32182478 310.21312773c1.17831749-2.65121438 3.68224221-4.41869063 6.33345657-4.71327002z" fill="#344D66" p-id="1201"></path><path d="M188.40455593 392.25348383c0.1472897-1.62018657 0.44186907-3.24037312 0.73644842-4.71327002 0.1472897-1.03102783 0.44186907-1.91476594 0.58915875-2.94579376 0.29457937-1.47289687 0.58915875-2.79850407 1.03102783-4.27140094 0.29457937-1.03102783 0.58915875-2.06205563 1.03102781-2.94579376 0.44186907-1.3256072 0.73644845-2.65121438 1.32560718-3.82953188 1.3256072-3.5349525 2.79850407-6.77532564 4.56598032-10.01569877 0.29457937-0.58915875 0.58915875-1.3256072 1.03102783-1.91476593 1.47289687-2.65121438 3.09308345-5.30242877 4.86055969-7.80635345 0.29457937-0.29457937 0.44186907-0.58915875 0.73644844-1.03102783 1.47289687-2.06205563 3.09308345-3.97682157 4.71327001-6.0388772 0.58915875-0.58915875 1.17831749-1.3256072 1.76747627-1.91476594 1.47289687-1.62018657 3.09308345-3.24037312 4.86055968-4.8605597l1.47289689-1.47289686c2.20934532-2.06205563 4.71327001-3.82953187 7.06990501-5.59700815 0.44186907-0.29457937 0.88373813-0.58915875 1.47289687-0.88373814 3.24037312-2.20934532 6.48074626-4.12411126 9.86840908-5.74429781 0.29457937-0.1472897 0.44186907-0.1472897 0.73644844-0.29457937 2.50392469-1.17831749 5.15513907-2.20934532 7.80635345-2.94579376 0.73644845-0.29457937 1.47289687-0.44186907 2.20934533-0.73644845 2.94579374-0.88373813 5.89158752-1.47289687 8.98467094-1.91476593 2.94579374-0.44186907 5.89158752-0.58915875 8.69009159-0.58915875h1.76747625c2.79850407 0.1472897 5.44971845 0.29457937 8.10093283 0.73644844 0.44186907 0.1472897 0.88373813 0.1472897 1.32560719 0.29457938 2.35663501 0.44186907 4.71327001 1.03102783 7.06990502 1.76747624 0.44186907 0.1472897 0.73644845 0.29457937 1.1783175 0.29457937 2.65121438 1.03102783 5.30242877 2.06205563 7.80635346 3.38766283l-20.32597692-11.04672658c-0.73644845-0.29457937-1.3256072-0.73644845-2.06205563-1.03102781-1.91476594-0.88373813-3.82953187-1.76747625-5.74429782-2.35663501-0.44186907-0.1472897-0.73644845-0.29457937-1.17831751-0.29457937-1.17831749-0.44186907-2.50392469-0.88373813-3.68224218-1.17831751-1.03102783-0.29457937-2.20934532-0.44186907-3.24037314-0.73644844-0.44186907-0.1472897-0.88373813-0.1472897-1.32560718-0.29457937-2.65121438-0.44186907-5.30242877-0.73644845-8.10093285-0.73644844h-1.76747624c-2.79850407 0-5.74429781 0.1472897-8.69009159 0.58915875-3.09308345 0.44186907-6.03887719 1.17831749-8.98467095 1.91476594-0.73644845 0.1472897-1.47289687 0.44186907-2.20934531 0.73644844-2.65121438 0.88373813-5.30242877 1.76747625-7.80635345 2.94579375-0.1472897 0.1472897-0.44186907 0.1472897-0.58915878 0.29457938h-0.14728967c-3.38766283 1.62018657-6.77532564 3.5349525-9.86840907 5.74429783l-0.88373814 0.44186906c-0.1472897 0.1472897-0.29457937 0.29457937-0.58915875 0.44186906-2.50392469 1.76747625-4.8605597 3.68224221-7.06990502 5.59700815-0.1472897 0.1472897-0.29457937 0.1472897-0.44186906 0.29457936-0.44186907 0.29457937-0.73644845 0.73644845-1.03102781 1.03102782-1.62018657 1.47289687-3.24037312 3.09308345-4.86055969 4.8605597-0.29457937 0.29457937-0.73644845 0.58915875-1.03102782 1.03102781-0.29457937 0.29457937-0.44186907 0.58915875-0.73644846 0.88373813-1.62018657 1.91476594-3.24037312 3.82953187-4.71326998 5.8915875-0.1472897 0.29457937-0.44186907 0.44186907-0.58915877 0.73644846l-0.14728968 0.14728967c-1.76747625 2.50392469-3.38766283 5.15513907-4.8605597 7.80635346-0.1472897 0.29457937-0.29457937 0.58915875-0.58915875 0.88373813-0.1472897 0.29457937-0.29457937 0.73644845-0.44186906 1.03102781-1.76747625 3.24037312-3.24037312 6.62803595-4.56598033 10.01569878v0.14728967c-0.44186907 1.17831749-0.73644845 2.50392469-1.17831751 3.6822422-0.29457937 1.03102783-0.73644845 1.91476594-1.0310278 2.94579375-0.44186907 1.47289687-0.73644845 2.79850407-1.0310278 4.27140096-0.1472897 0.88373813-0.44186907 1.91476594-0.58915877 2.79850405-0.29457937 1.62018657-0.44186907 3.38766283-0.73644843 5.0078494-0.1472897 0.73644845-0.29457937 1.47289687-0.29457938 2.20934531-0.29457937 2.50392469-0.29457937 4.8605597-0.29457938 7.36448439 0 25.77569536 12.37233377 46.69083102 31.07812414 56.8538195l20.3259769 11.04672658c-18.70579035-10.16298847-31.07812413-31.07812413-31.07812412-56.85381948 0-2.50392469 0.1472897-5.0078494 0.29457938-7.36448439-0.29457937-0.1472897-0.1472897-0.88373813 0-1.76747626z" fill="#FFAFAF" p-id="1202"></path><path d="M254.97949481 320.22882649c36.96971163-5.15513907 67.01680795 22.97719129 67.01680794 63.03998637-0.1472897 40.06279507-30.19438599 76.59063766-67.16409763 81.89306643-36.96971163 5.15513907-67.01680795-22.97719129-67.01680795-63.03998638 0-39.9155054 30.04709632-76.59063766 67.16409764-81.89306642z" fill="#FFDCDC" p-id="1203"></path></svg>