<?xml version="1.0" standalone="no"?><!DOCTYPE svg PUBLIC "-//W3C//DTD SVG 1.1//EN" "http://www.w3.org/Graphics/SVG/1.1/DTD/svg11.dtd"><svg t="1587737978535" class="icon" viewBox="0 0 1024 1024" version="1.1" xmlns="http://www.w3.org/2000/svg" p-id="940" xmlns:xlink="http://www.w3.org/1999/xlink" width="200" height="200"><defs><style type="text/css"></style></defs><path d="M513.33602451 512m-447.20496826 0a447.20496914 447.20496914 0 1 0 894.4099374 0 447.20496914 447.20496914 0 1 0-894.4099374 0Z" fill="#DF71F5" p-id="941"></path><path d="M513.33602451 512m-312.4006207 0a312.4006207 312.4006207 0 1 0 624.80124228 0 312.4006207 312.4006207 0 1 0-624.80124228 0Z" fill="#51E4C2" p-id="942"></path><path d="M817.02173955 778.4559002l-642.29813701-63.01676953a11.18012432 11.18012432 0 0 1-10.02857168-12.21987569l43.91552812-447.64099453a11.18012432 11.18012432 0 0 1 12.21987569-10.03416064l642.29813701 63.01676953a11.18012432 11.18012432 0 0 1 10.03416152 12.21987568l-43.92111797 447.64099453a11.18012432 11.18012432 0 0 1-12.21987568 10.03416065z" fill="#E4EFEC" p-id="943"></path><path d="M836.0279501 748.07391289H190.64968964a11.18012432 11.18012432 0 0 1-11.18012431-11.18012432V287.10621143a11.18012432 11.18012432 0 0 1 11.18012432-11.18012432h645.37267061a11.18012432 11.18012432 0 0 1 11.18012431 11.18012432v449.78757714a11.18012432 11.18012432 0 0 1-11.18012431 11.18012432z" fill="#FFFFFF" p-id="944"></path><path d="M513.34161523 567.9006207l107.14472051-107.1447205 198.67639746 198.67639834v60.691304H513.34161523z" fill="#3ECCA6" p-id="945"></path><path d="M713.6279501 540.72173955m-79.96583848 0a79.96583848 79.96583848 0 1 0 159.93167695 0 79.96583848 79.96583848 0 1 0-159.93167695 0Z" fill="#F8E71C" p-id="946"></path><path d="M713.6279501 540.72173955m-50.15962705 0a50.15962705 50.15962705 0 1 0 100.31925498 0 50.15962705 50.15962705 0 1 0-100.31925498 0Z" fill="#F8E71C" p-id="947"></path><path d="M207.41987568 596.18074502c16.02111797-12.76211162 199.7273294-199.73291924 199.7273294-199.73291924l324.48074502 324.48633574H207.41987568V596.18074502z" fill="#51E4C2" p-id="948"></path><path d="M279.20745371 563.70807441a36.17329219 21.34844737 0 1 0 72.3465835 0 36.17329219 21.34844737 0 1 0-72.3465835 0Z" fill="#1F211E" p-id="949"></path><path d="M311.38944102 510.41242197h7.97701904v53.29565245h-7.97701904z" fill="#534741" p-id="950"></path><path d="M315.38074502 489.4273294m-36.17329131 0a36.17329219 36.17329219 0 1 0 72.3465835 0 36.17329219 36.17329219 0 1 0-72.3465835 0Z" fill="#3ECCA6" p-id="951"></path></svg>