<?xml version="1.0" standalone="no"?><!DOCTYPE svg PUBLIC "-//W3C//DTD SVG 1.1//EN" "http://www.w3.org/Graphics/SVG/1.1/DTD/svg11.dtd"><svg t="1587738088590" class="icon" viewBox="0 0 1024 1024" version="1.1" xmlns="http://www.w3.org/2000/svg" p-id="1572" xmlns:xlink="http://www.w3.org/1999/xlink" width="200" height="200"><defs><style type="text/css"></style></defs><path d="M532.38915195 62h61.11784863v83.73938906c109.13901416 0.59530342 218.2780292-1.19060771 328.01234679 0.5953043a35.71822266 35.71822266 0 0 1 39.68691415 39.68691416c1.68669404 206.17351963 0 412.44625722 0.99217265 618.61977686-0.99217266 21.13328232 1.98434531 44.54856123-9.92172831 63.300629-14.98181045 10.91390185-34.22996367 9.92172832-51.69220576 9.92172832H593.70543477v83.73938906h-64.0943666C373.93914658 932.92933555 217.96957373 906.23988565 62 878.26061094V145.93782412C218.76331133 117.85933232 375.62584062 90.57457813 532.38915195 62z" fill="#A33639" p-id="1573"></path><path d="M593.50700058 177.09205185h337.33877169v669.8158963h-337.33877169v-83.73938907h265.8031084v-41.86969453H593.50700058v-52.28751006h265.8031084V627.5385292H593.50700058v-52.78359551h265.8031084v-41.86969541H593.50700058v-52.28750918h265.8031084V439.02568584H593.50700058v-52.58516133h265.8031084v-41.86969453H593.50700058V292.18410283h265.8031084v524.85944238H593.50700058z" fill="#FFFFFF" p-id="1574"></path><path d="M629.32444033 527.52750488h265.80310928v41.86969541H629.32444033zM629.32444033 599.4600374h265.80310928v41.86969453H629.32444033zM629.32444033 671.39256992h265.80310928v41.86969453H629.32444033zM586.16492099 743.32510156h308.96262862v41.86969542H586.16492099z" fill="#A33639" p-id="1575"></path><path d="M220.74765752 340.89979063c52.089075 2.48043252 115.09205185-21.13328232 158.74765751 18.75206689 41.27439112 51.3945545 30.36048925 145.75019326-30.85657646 176.40833467-21.72858574 11.40998818-46.7313416 9.92172832-70.34505557 9.02877275v115.09205186L220.74765752 655.31936972c-0.79373847-104.7734543-0.99217266-209.6461248 0-314.4195791z" fill="#FFFFFF" p-id="1576"></path><path d="M277.89681377 393.98103828c18.85128398-0.89295557 42.26656377-4.46477783 54.96637676 13.69198565a72.42861885 72.42861885 0 0 1 1.2898248 64.39201875c-10.91390185 19.84345752-35.61900557 18.25598057-54.76794169 20.53797802-1.98434531-32.84092178-1.78591113-65.68184355-1.48825987-98.62198242zM840.458825 395.86616651a73.81766075 73.81766075 0 0 1-42.46499883-17.26380704 404.80652637 404.80652637 0 0 0-68.26149229 21.82780284c-17.85911133 31.65031406-34.42839785 47.82273135-48.81490487 47.82273134a15.27946172 15.27946172 0 0 1-8.63190352-2.28199746 17.06537286 17.06537286 0 0 1-9.92172921-15.57711387c0-5.15929922 1.19060771-19.84345752 55.66089815-43.15951933a411.25564951 411.25564951 0 0 0 30.45970635-71.43644619c-6.94521035-13.79120273-21.82780283-47.72351426-11.50920528-64.98732217a18.15676347 18.15676347 0 0 1 17.75989424-9.22720694 19.24815322 19.24815322 0 0 1 14.98181045 7.4412958c7.44129668 9.92172832 6.84599238 32.24561748-2.87730175 64.49123585A173.13416367 173.13416367 0 0 0 802.65703906 359.65185752a194.36666309 194.36666309 0 0 1 36.1150919-3.9686915c26.98710205 0.59530342 31.05501065 13.19589932 30.45970634 20.73641308 0 19.84345752-18.95050195 19.84345752-28.67379521 19.84345664z m-162.61713193 37.00804833l1.98434618-0.49608632a39.68691416 39.68691416 0 0 0 21.03406437-14.78337628 49.60864336 49.60864336 0 0 0-23.01841055 15.2794626z m82.05269589-176.01146542h-1.88512909a3.86947441 3.86947441 0 0 0-2.48043164 0.59530341 46.13603818 46.13603818 0 0 0 3.67103935 29.76518584 46.83055869 46.83055869 0 0 0 0.69452138-30.36048925zM756.52100088 341.09822481v1.09139062l-0.59530342-0.5953043c-4.76242998 12.60059502-9.92172832 25.00275586-15.87476602 37.20648252l0.99217266-0.59530342V379.49531504A304.39863281 304.39863281 0 0 1 776.3644584 368.38297901l-0.5953043-0.49608633h1.58747695a172.53886026 172.53886026 0 0 1-20.83563017-26.78866788z m83.14408564 30.55892431a58.14132979 58.14132979 0 0 0-15.9739831 1.48825898 44.54856123 44.54856123 0 0 0 18.45441562 5.85382061 22.91919346 22.91919346 0 0 0 12.20372578-1.38904277c-0.39686924-2.28199746-2.87730088-5.95303682-15.08102753-5.95303682z" fill="#A33639" p-id="1577"></path></svg>