<?xml version="1.0" standalone="no"?><!DOCTYPE svg PUBLIC "-//W3C//DTD SVG 1.1//EN" "http://www.w3.org/Graphics/SVG/1.1/DTD/svg11.dtd"><svg t="1587738082867" class="icon" viewBox="0 0 1024 1024" version="1.1" xmlns="http://www.w3.org/2000/svg" p-id="1446" xmlns:xlink="http://www.w3.org/1999/xlink" width="200" height="200"><defs><style type="text/css"></style></defs><path d="M535.49482607 62h57.99623731v94.19096865c109.32502324 0.6349957 218.75587998-1.16415791 328.08090235 0a35.77140175 35.77140175 0 0 1 39.58137421 40.5338669c1.79915362 195.47271914 0 391.05127002 1.05832529 586.62982089-1.05832529 21.16651026 2.01081885 44.55550372-9.84242724 63.49952989-14.92238935 10.58325469-34.28974599 9.63076201-51.85794903 10.58325469-102.23424229-0.52916309-204.46848545 0-306.91439297 0V961.57666953h-63.49952987C374.10018857 932.89604873 217.99717753 906.3320794 62 878.28645342V145.92521182C219.79633115 117.98541846 377.59266231 89.51646289 535.49482607 62z" fill="#D24625" p-id="1447"></path><path d="M593.49106338 187.62323575H930.88523076v638.27610556H593.49106338v-83.71354659h245.42568193v-41.80385654H593.49106338v-52.91627519h245.42568193v-41.27469434H593.59689599v-61.48871104c40.53386602 12.80573877 86.6768581 12.48824092 122.87158946-12.38240829 39.15804287-23.81232393 59.58372568-69.10865508 62.97036679-114.29915274H644.81984932c0-45.50799638 0.52916309-91.01599277-0.84666007-136.41815655-16.82737559 3.28080938-33.54891856 6.87911573-50.27046152 10.58325469z" fill="#FFFFFF" p-id="1448"></path><path d="M665.24553125 259.48353711a145.62558809 145.62558809 0 0 1 134.61900293 137.58231445c-44.87300068 0.52916309-89.74600224 0-134.72483555 0 0.10583261-46.03715859 0.10583261-91.6509876 0.10583262-137.58231445z" fill="#D24625" p-id="1449"></path><path d="M226.04045117 338.43461943c55.56208886 2.75164629 122.76575771-22.43650078 169.3320794 20.10818409 44.02634063 54.82126055 32.38475977 155.46801533-32.91392286 188.17027294-23.17732823 12.17074307-49.84713106 10.58325469-75.03527724 9.63076202v122.76575683l-60.85371621-5.18579472c-1.58748838-111.75917256-1.79915362-223.62417685-0.52916309-335.48918116z" fill="#FFFFFF" p-id="1450"></path><path d="M286.78833477 395.05503271c20.10818408-0.84666006 45.08466592-4.65663252 58.63123213 14.710725a77.25776133 77.25776133 0 0 1 1.37582313 68.68532373c-11.64158086 21.16651026-37.99388496 19.36735664-58.41956688 21.9073377-2.11665058-35.03057344-1.90498623-70.06114776-1.58748838-105.30338643z" fill="#D24625" p-id="1451"></path></svg>