<?xml version="1.0" standalone="no"?><!DOCTYPE svg PUBLIC "-//W3C//DTD SVG 1.1//EN" "http://www.w3.org/Graphics/SVG/1.1/DTD/svg11.dtd"><svg t="1587738054486" class="icon" viewBox="0 0 1037 1024" version="1.1" xmlns="http://www.w3.org/2000/svg" p-id="1072" xmlns:xlink="http://www.w3.org/1999/xlink" width="202.5390625" height="200"><defs><style type="text/css"></style></defs><path d="M198.144 62.520889h640.568889v38.172444H198.087111V62.577778zM130.730667 136.647111h775.395555v38.229333H130.673778v-38.229333z m-67.413334 109.226667c6.826667-24.462222 29.525333-40.106667 54.897778-37.034667 266.467556-0.455111 532.878222-0.341333 799.288889 0 24.860444-3.185778 46.648889 11.377778 56.035556 34.019556v686.819555c-14.392889 6.428444-23.381333 20.024889-32.995556 31.857778H96.256a157.127111 157.127111 0 0 0-32.881778-33.393778V245.873778m207.985778 87.210666c-23.153778 63.715556-48.241778 126.691556-73.272889 189.610667 7.964444 0.341333 24.064 0.796444 32.028445 0.967111 7.509333-19.057778 14.791111-38.172444 22.471111-57.173333 24.291556 0.455111 48.526222 0.455111 72.817777 0.455111l21.788445 56.661333 32.711111-1.365333c-25.031111-63.260444-50.801778-126.293333-74.296889-190.236444l-34.247111 1.137777m167.253333 105.927111c-27.875556 17.066667-19.057778 73.272889 17.237334 72.021334 116.906667 1.479111 233.984 1.706667 351.004444 0 43.008 0.568889 43.235556-76.629333 0.284445-76.629334-105.528889-2.901333-211.228444 0-316.871112-1.479111-17.066667 1.365333-35.953778-2.104889-51.712 6.087111m-225.393777 157.866667c-26.965333 17.578667-18.090667 72.419556 17.635555 71.509333 191.829333 1.422222 383.715556 1.536 575.544889 0 43.804444 0.910222 43.804444-77.425778 0.113778-76.8-180.110222-2.673778-360.504889 0.170667-540.615111-1.308444-17.408 1.592889-36.977778-2.503111-52.679111 6.599111m0 145.976889c-19.683556 13.482667-20.366222 45.852444-4.835556 62.577778 11.776 12.629333 30.72 8.476444 46.08 10.126222 183.808-0.967111 367.786667 1.137778 551.480889-1.137778 43.975111 1.592889 44.657778-76.913778 0.910222-76.629333-180.224-2.787556-360.618667 0-540.956444-1.422222-17.408 1.422222-36.864-2.503111-52.679111 6.485333z m45.966222-298.439111c9.841778-23.153778 11.662222-52.736 33.905778-68.266667 8.305778 22.755556 16.497778 45.511111 24.860444 68.266667-19.683556 0.113778-39.253333 0.113778-58.766222 0z" fill="#2D8DCD" p-id="1073"></path></svg>