<?xml version="1.0" standalone="no"?><!DOCTYPE svg PUBLIC "-//W3C//DTD SVG 1.1//EN" "http://www.w3.org/Graphics/SVG/1.1/DTD/svg11.dtd"><svg t="1587738100835" class="icon" viewBox="0 0 1024 1024" version="1.1" xmlns="http://www.w3.org/2000/svg" p-id="1823" xmlns:xlink="http://www.w3.org/1999/xlink" width="200" height="200"><defs><style type="text/css"></style></defs><path d="M532.31984932 62h61.17121406v83.71354658C702.92191924 146.66603926 812.24694248 144.54938867 921.46613398 146.66603926a35.55973652 35.55973652 0 0 1 39.47554073 40.00470381c1.79915362 206.16180645 0 412.74694248 1.05832529 618.59125107-1.05832529 21.16651026 2.01081885 44.55550372-9.94825987 63.49952989-14.92238935 10.58325469-34.18391338 9.5249294-51.64628378 10.58325468h-306.91439297V961.57666953h-63.49952989C373.99435596 932.89604873 217.99717753 906.22624677 62 878.28645342V145.92521182C218.73800586 117.87958584 375.58184346 90.57478818 532.31984932 62z" fill="#2A5699" p-id="1824"></path><path d="M593.49106338 177.14581367H930.88523076v669.70837266H593.49106338v-83.71354659h265.85136386v-42.33301963H593.49106338v-51.85794902h265.85136386v-42.33302051H593.49106338v-51.85794902h265.85136386v-42.33301963H593.49106338v-52.91627432h265.85136386V438.76387549H593.49106338v-52.91627432h265.85136386v-41.27469434H593.49106338v-52.38711211h265.85136386V250.38193818H593.49106338zM273.66509903 362.03527724c19.47318925-1.16415791 38.84054589-2.01081885 58.31373427-3.06914326 13.65239883 70.69614258 27.51646289 141.1806208 42.33301963 211.66509815 11.53574825-72.70696143 24.34148613-145.096425 36.72389532-217.59172119 20.42568193-0.74082744 40.85136386-1.90498623 61.27704579-3.17497676-23.17732823 101.38758223-43.39134492 203.72765801-68.68532461 304.48024454-17.03904082 9.10159893-42.33301963 0-62.86453417 1.05832529C326.58137334 585.97695195 310.81232393 517.07996211 298.64158086 447.54797744c-11.95907783 67.62699932-27.51646289 134.61900293-41.16886172 201.71683916-19.68485449-1.05832529-39.3697081-2.2224832-59.16039521-3.59830634-16.9332082-92.07431807-36.93555967-183.61947305-52.9162752-275.90545635 17.46237041-0.84666006 35.03057344-1.58748838 52.9162752-2.22248409 10.58325469 66.67450576 22.54233339 133.03151455 31.74976493 199.81185381 14.18156192-68.47365938 28.89228604-136.84148614 43.60301016-205.31514639z" fill="#FFFFFF" p-id="1825"></path></svg>