<?xml version="1.0" standalone="no"?><!DOCTYPE svg PUBLIC "-//W3C//DTD SVG 1.1//EN" "http://www.w3.org/Graphics/SVG/1.1/DTD/svg11.dtd"><svg t="1587738105901" class="icon" viewBox="0 0 1024 1024" version="1.1" xmlns="http://www.w3.org/2000/svg" p-id="1946" xmlns:xlink="http://www.w3.org/1999/xlink" width="200" height="200"><defs><style type="text/css"></style></defs><path d="M940.16 158.72h-403.2v705.6h403.2c14.4 0 24.96-11.52 24.96-24.96V184.64c0-14.4-10.56-25.92-24.96-25.92z" fill="#4CAF50" p-id="1947"></path><path d="M713.6 285.44h176.64v75.84H713.6z m0 251.52h176.64v75.84H713.6z m0 125.76h176.64v75.84H713.6z m0-251.52h176.64v75.84H713.6zM536.96 285.44h125.76v75.84H536.96z m0 251.52h125.76v75.84H536.96z m0 125.76h125.76v75.84H536.96z m0-251.52h125.76v75.84H536.96z" fill="#FFFFFF" p-id="1948"></path><path d="M587.84 966.08L58.88 865.28V158.72L587.84 57.92z" fill="#2E7D32" p-id="1949"></path><path d="M388.16 684.8l-59.52-112.32c-1.92-3.84-4.8-11.52-6.72-23.04H320c-0.96 5.76-3.84 13.44-7.68 24L252.8 684.8h-93.12l110.4-172.8-100.8-172.8h95.04l49.92 103.68c3.84 8.64 7.68 18.24 10.56 28.8h0.96c1.92-6.72 5.76-16.32 10.56-29.76L390.08 339.2h86.4L373.76 510.08 480.32 684.8h-92.16z" fill="#FFFFFF" p-id="1950"></path></svg>